<svg width="236" height="249" viewBox="0 0 236 249" fill="none" xmlns="http://www.w3.org/2000/svg">
<g opacity="0.3">
<path d="M113.114 206.472C148.869 206.472 177.855 183.891 177.855 156.038C177.855 128.184 148.869 105.604 113.114 105.604C77.3596 105.604 48.3742 128.184 48.3742 156.038C48.3742 183.891 77.3596 206.472 113.114 206.472Z" fill="#AFAFAF"/>
</g>
<path d="M98.2418 164.583C94.1172 161.342 88.1466 162.059 84.9074 166.186L80.9183 171.267C77.6791 175.394 78.397 181.367 82.5217 184.609C86.6463 187.85 92.6169 187.133 95.8561 183.006L99.8452 177.925C103.084 173.798 102.366 167.825 98.2418 164.583Z" fill="#F49000"/>
<path d="M127.687 164.373C131.812 161.132 137.782 161.85 141.021 165.976L145.01 171.057C148.25 175.184 147.532 181.157 143.407 184.399C139.282 187.64 133.312 186.923 130.073 182.796L126.084 177.715C122.844 173.588 123.562 167.615 127.687 164.373Z" fill="#F49000"/>
<path d="M124.194 56.0968C116.987 55.4552 111.675 53.7659 106.664 51.4892C102.089 49.4116 97.712 47.4244 92.2298 46.9363C73.8493 45.3 66.1551 65.0761 65.7989 71.7668L61.5808 119.27C57.4648 165.624 94.6469 181.551 112.869 183.64C131.173 184.803 170.578 175.694 174.694 129.34L178.912 81.8369C179.741 75.1882 175.652 54.3631 157.271 52.7267C151.789 52.2387 147.131 53.4215 142.262 54.6584C136.928 56.014 131.401 56.7384 124.194 56.0968Z" fill="#58CC02"/>
<path d="M40.5444 110.612C31.6013 111.634 35.5583 126.173 43.4744 136.089C50.8367 145.312 68.462 152.58 74.6606 153.103L124.887 155.691L126.477 101.944C126.477 101.944 49.4875 109.59 40.5444 110.612Z" fill="#58CC02"/>
<path d="M186.316 158.413C190.314 166.374 173.723 173.522 161.408 170.087C151.096 167.21 137.924 160.759 136.347 157.279L93.8027 110.092L146.929 82.5382C146.929 82.5382 182.319 150.451 186.316 158.413Z" fill="#58CC02"/>
<path d="M120.018 162.257L134.151 161.515C134.909 161.476 135.462 162.055 135.246 162.66C134.202 165.567 130.99 167.707 127.255 167.903C123.521 168.098 120.196 166.303 118.992 163.513C118.741 162.933 119.26 162.297 120.018 162.257Z" fill="#8EE000"/>
<path d="M120.022 170.667C114.671 170.163 112.636 170.008 107.216 169.525C102.473 169.102 107.494 174.081 112.915 174.564C118.335 175.048 123.656 171.008 120.022 170.667Z" fill="#89E219"/>
<path d="M95.1185 158.124L108.968 161.058C109.711 161.215 110.08 161.915 109.7 162.44C107.87 164.963 104.165 166.189 100.505 165.414C96.8457 164.638 94.1447 162.056 93.7725 159.066C93.6944 158.443 94.3759 157.967 95.1185 158.124Z" fill="#8EE000"/>
<mask id="mask0_4_71" style="mask-type:luminance" maskUnits="userSpaceOnUse" x="37" y="39" width="162" height="170">
<path d="M51.3078 39.4834L198.031 52.5456L184.155 208.814L37.4318 195.752L51.3078 39.4834Z" fill="white"/>
</mask>
<g mask="url(#mask0_4_71)">
<path d="M133.778 92.2856C126.076 98.1271 114.671 97.1112 108.776 90.0586C104.882 85.36 104.21 97.9212 106.778 127.527C112.041 127.996 115.77 128.328 117.853 128.513C125.538 129.089 129.367 129.539 129.367 129.539C129.347 129.754 141.48 86.444 133.778 92.2856Z" fill="#89E219"/>
<path d="M141.157 100.011L160.288 82.4565C161.362 81.5727 162.997 81.8282 163.43 83.1718C166.321 89.1957 164.912 96.3601 159.856 101.024C154.8 105.687 147.429 106.553 141.527 103.307C140.379 102.553 140.084 100.894 141.157 100.011Z" fill="#89E219"/>
<path d="M131.482 94.4696L150.604 77.0246C151.568 76.1311 153.203 76.3865 153.755 77.6322C156.646 83.6561 155.237 90.8191 150.181 95.4827C145.125 100.146 137.754 101.012 131.853 97.7664C130.704 97.0116 130.409 95.3534 131.482 94.4696Z" fill="#89E219"/>
<path d="M110.984 92.6489L94.9059 72.0685C94.0051 71.0089 92.7882 71.0104 91.9159 72.1291C88.1187 77.5573 88.2439 84.857 92.3996 90.3411C96.5553 95.8252 103.658 97.9799 110.039 95.8285C111.302 95.2885 111.884 93.7085 110.984 92.6489Z" fill="#89E219"/>
<path d="M100.374 96.3851L84.744 75.7347C83.8431 74.6751 82.1887 74.6376 81.4162 75.8737C77.5097 81.2922 77.6348 88.5932 81.7905 94.0773C85.9462 99.5615 93.0486 101.716 99.4294 99.5647C100.693 99.0247 101.275 97.4448 100.374 96.3851Z" fill="#89E219"/>
<path d="M149.104 87.5596C163.76 87.6686 174.697 100.945 171.772 115.078L169.08 128.074C166.908 138.562 157.416 145.99 146.542 145.709C133.57 145.374 123.547 134.322 124.677 121.597L125.85 108.379C126.902 96.5222 137.013 87.4687 149.104 87.5596Z" fill="#89E219"/>
<path d="M94.6285 82.714C80.1832 80.2309 67.0798 91.3658 67.4705 105.794L67.831 119.063C68.1217 129.769 76.1573 138.758 86.9096 140.404C99.7379 142.368 111.549 133.26 112.679 120.535L113.852 107.317C114.904 95.4602 106.546 84.7615 94.6285 82.714Z" fill="#89E219"/>
<path d="M95.1225 91.5693C85.0946 89.0614 75.3819 96.516 75.4102 106.695L75.4398 117.466C75.4595 124.273 80.0939 130.244 86.7632 132.054C96.0059 134.562 105.274 128.229 106.107 118.834L107.059 108.107C107.737 100.469 102.678 93.4586 95.1225 91.5693Z" fill="white"/>
<path d="M94.8816 99.2843C89.9992 98.8494 85.832 102.688 85.9471 107.512L86.1382 115.494C86.2317 119.394 89.2861 122.61 93.232 122.961C97.5087 123.342 101.277 120.238 101.651 116.028L102.357 108.077C102.752 103.624 99.4051 99.6872 94.8816 99.2843Z" fill="#4B4B4B"/>
<path d="M86.4714 108.327C89.1966 108.569 91.5985 106.591 91.8367 103.909C92.0748 101.226 90.0589 98.8549 87.3337 98.6122C84.6086 98.3696 82.2066 100.347 81.9685 103.03C81.7303 105.713 83.7462 108.084 86.4714 108.327Z" fill="white"/>
<path d="M147.058 96.1881C157.371 95.492 165.618 104.546 163.798 114.561L161.872 125.157C160.653 131.854 155.04 136.912 148.157 137.515C138.617 138.35 130.61 130.478 131.444 121.084L132.396 110.357C133.074 102.718 139.289 96.7124 147.058 96.1881Z" fill="white"/>
<path d="M144.604 103.707C140.08 103.304 136.093 106.587 135.698 111.04L134.992 118.991C134.618 123.201 137.781 126.923 142.058 127.304C146.004 127.655 149.577 125.03 150.355 121.208L151.949 113.385C152.912 108.657 149.486 104.142 144.604 103.707Z" fill="#4B4B4B"/>
<path d="M137.424 112.615C140.013 112.845 142.295 110.966 142.521 108.418C142.747 105.869 140.832 103.617 138.243 103.386C135.654 103.156 133.373 105.035 133.146 107.583C133.017 109.043 133.589 110.404 134.588 111.345C135.334 112.048 136.318 112.516 137.424 112.615Z" fill="white"/>
<path d="M126.498 128.198C126.89 123.773 123.488 119.77 118.992 119.369C114.497 118.969 110.443 122.308 110.05 126.733L109.82 129.323C109.428 133.748 112.83 137.752 117.325 138.152C121.821 138.553 125.875 135.213 126.268 130.788L126.498 128.198Z" fill="#F49000"/>
<path d="M124.509 125.414C124.74 122.811 122.209 120.409 118.926 120.117C115.644 119.825 112.73 121.741 112.498 124.345L112.363 125.868C112.132 128.472 114.663 130.873 117.946 131.165C121.228 131.458 124.143 129.541 124.374 126.938L124.509 125.414Z" fill="#B06800"/>
<path d="M126.32 132.798L125.818 138.459C125.364 143.568 121.21 147.379 116.547 146.964C111.884 146.549 108.466 142.063 108.919 136.954L109.422 131.293C109.875 126.184 114.03 122.372 118.693 122.788C123.356 123.203 126.774 127.689 126.32 132.798Z" fill="#F49000"/>
<path d="M124.442 130.704L124.108 134.469C123.722 138.817 120.831 142.118 117.656 141.835L116.623 141.743C113.448 141.46 111.183 137.701 111.569 133.353L111.904 129.587C112.289 125.239 115.181 121.939 118.356 122.221L119.389 122.313C122.564 122.596 124.828 126.356 124.442 130.704Z" fill="#A96606"/>
<path d="M117.467 136.328C113.799 136.001 112.18 138.152 112.18 138.152C112.18 138.152 113.288 141.518 116.956 141.845C121.041 142.209 122.487 139.173 122.487 139.173C122.487 139.173 121.114 136.652 117.467 136.328Z" fill="#FFCAFF"/>
<path d="M119.103 119.379C113.401 118.871 108.252 122.113 106.825 126.989L106.786 127.42C106.758 127.744 106.857 127.862 107.187 127.891L118.125 132.053C118.344 132.073 128.896 129.824 128.896 129.824C129.216 129.961 129.345 129.756 129.373 129.432L129.412 129.001C128.856 124.056 124.476 119.857 119.103 119.379Z" fill="#FFC200"/>
<path d="M116.084 123.522C116.983 123.118 119.233 122.897 121.066 124.074" stroke="#FFDE00" stroke-width="12.0467" stroke-linecap="round"/>
</g>
</svg>
