<svg width="52" height="52" viewBox="0 0 52 52" fill="none" xmlns="http://www.w3.org/2000/svg">
<path d="M22.1036 2.61657C23.6769 -0.872191 28.3231 -0.872191 29.8963 2.61657L34.4134 12.633C35.0566 14.0594 36.3375 15.0348 37.8083 15.2184L48.1705 16.5117C51.8734 16.9739 53.3318 21.8943 50.5541 24.5534L43.1331 31.6578C41.9882 32.7536 41.4729 34.4169 41.7793 36.0272L43.7612 46.4398C44.4918 50.2787 40.7085 53.2904 37.4794 51.4402L28.0428 46.0337C26.7668 45.3026 25.2333 45.3026 23.9572 46.0337L14.5205 51.4402C11.2914 53.2904 7.50813 50.2787 8.2388 46.4398L10.2206 36.0272C10.5271 34.4169 10.0118 32.7536 8.86693 31.6578L1.44587 24.5534C-1.33186 21.8943 0.12665 16.9739 3.8296 16.5117L14.1917 15.2184C15.6625 15.0348 16.9433 14.0594 17.5865 12.633L22.1036 2.61657Z" fill="#AFAFAF"/>
</svg>
